<?xml version="1.0" encoding="UTF-8"?>
<svg version="1.1" xmlns="http://www.w3.org/2000/svg" width="110" height="132">
<path d="M0 0 C36.3 0 72.6 0 110 0 C110 43.56 110 87.12 110 132 C73.7 132 37.4 132 0 132 C0 88.44 0 44.88 0 0 Z " fill="#EFF3E4" transform="translate(0,0)"/>
<path d="M0 0 C3.34998521 1.11666174 3.79340222 1.74694925 5.6875 4.5625 C6.12449219 5.20316406 6.56148438 5.84382813 7.01171875 6.50390625 C7.33785156 6.99761719 7.66398437 7.49132812 8 8 C6.64492915 11.16790156 5.31217904 12.80615319 2.5 14.77734375 C1.42939331 15.53821289 1.42939331 15.53821289 0.3371582 16.31445312 C-0.81973511 17.11786133 -0.81973511 17.11786133 -2 17.9375 C-3.6316878 19.0921973 -5.26319282 20.24715292 -6.89453125 21.40234375 C-7.73580566 21.9938623 -8.57708008 22.58538086 -9.44384766 23.19482422 C-13.55038113 26.09489189 -17.61729868 29.04927463 -21.6875 32 C-26.78027105 35.68280293 -31.88263109 39.3514434 -37 43 C-32.74624024 47.62553145 -27.92149782 51.02179681 -22.75 54.5625 C-20.96458847 55.79780821 -19.17943706 57.03349244 -17.39453125 58.26953125 C-16.49686035 58.88908691 -15.59918945 59.50864258 -14.67431641 60.14697266 C-10.57570976 62.98688725 -6.50620398 65.86748246 -2.4375 68.75 C-1.06147266 69.72434646 0.31480753 70.69833599 1.69140625 71.671875 C2.26060791 72.0750293 2.82980957 72.47818359 3.41625977 72.89355469 C4.92932033 73.9506212 6.4642547 74.9761698 8 76 C6.54955729 80.10958767 4.48889248 83.43258745 2 87 C-4.93367026 82.77637134 -11.51499631 78.22972204 -18.03198242 73.39892578 C-24.8633355 68.34011961 -31.81185151 63.45380346 -38.76806641 58.56884766 C-42.70401284 55.80223293 -46.63278223 53.02545106 -50.5625 50.25 C-52.0012719 49.23433223 -53.44007107 48.21870311 -54.87890625 47.203125 C-55.90886719 46.47609375 -56.93882813 45.7490625 -58 45 C-56.14545859 40.82782921 -53.44962467 38.88433668 -49.75 36.375 C-48.46733338 35.48193532 -47.18478436 34.5887017 -45.90234375 33.6953125 C-45.24862793 33.24446289 -44.59491211 32.79361328 -43.92138672 32.32910156 C-41.03195053 30.3303607 -38.17078039 28.292947 -35.3125 26.25 C-34.47247437 25.65070679 -34.47247437 25.65070679 -33.61547852 25.03930664 C-28.44249378 21.3383851 -23.31124197 17.5812069 -18.1875 13.8125 C-17.41124268 13.24241211 -16.63498535 12.67232422 -15.83520508 12.08496094 C-15.07876709 11.52711914 -14.3223291 10.96927734 -13.54296875 10.39453125 C-12.79837402 9.84619629 -12.0537793 9.29786133 -11.28662109 8.73291016 C-9.67728187 7.51327639 -8.09355535 6.25947109 -6.52978516 4.98193359 C-5.33361572 4.00667725 -5.33361572 4.00667725 -4.11328125 3.01171875 C-3.39567627 2.41190186 -2.67807129 1.81208496 -1.9387207 1.1940918 C-1.29894287 0.8000415 -0.65916504 0.40599121 0 0 Z " fill="#67A819" transform="translate(93,22)"/>
<path d="M0 0 C5.61396748 2.16195271 10.94056194 4.85899108 16.32080078 7.5402832 C18.12383542 8.43692086 19.93095956 9.32493282 21.73828125 10.21289062 C22.87910156 10.78072266 24.01992188 11.34855469 25.1953125 11.93359375 C26.75789795 12.7078772 26.75789795 12.7078772 28.35205078 13.49780273 C30.68344947 14.82041901 32.25661018 15.99424086 34 18 C32.64690833 19.23281685 31.26643127 20.43562476 29.875 21.625 C28.72644531 22.63433594 28.72644531 22.63433594 27.5546875 23.6640625 C25 25 25 25 22.125 24.4375 C18.71349897 22.86820953 15.41421052 21.18742212 12.125 19.375 C10.97257812 18.74335937 9.82015625 18.11171875 8.6328125 17.4609375 C7.32957031 16.73777344 7.32957031 16.73777344 6 16 C6.0314209 16.67579102 6.0628418 17.35158203 6.09521484 18.04785156 C6.22006691 21.11489272 6.29801004 24.18140002 6.375 27.25 C6.45041016 28.84521484 6.45041016 28.84521484 6.52734375 30.47265625 C6.58314182 33.4299542 6.57530932 36.09714703 6 39 C3.0390625 41.609375 3.0390625 41.609375 0 43 C-0.33 43.66 -0.66 44.32 -1 45 C0.175625 45.433125 0.175625 45.433125 1.375 45.875 C4 47 4 47 6 49 C6.22705078 51.24658203 6.22705078 51.24658203 6.1953125 54.0078125 C6.18564453 55.48701172 6.18564453 55.48701172 6.17578125 56.99609375 C6.15902344 58.02863281 6.14226563 59.06117187 6.125 60.125 C6.11597656 61.16527344 6.10695313 62.20554688 6.09765625 63.27734375 C6.07403747 65.85179092 6.04110149 68.42578212 6 71 C6.73319458 70.57533447 6.73319458 70.57533447 7.48120117 70.14208984 C9.70633435 68.86734807 11.94624481 67.62115988 14.1875 66.375 C15.34088867 65.70597656 15.34088867 65.70597656 16.51757812 65.0234375 C22.28031153 61.85764404 22.28031153 61.85764404 25.84375 62.5625 C28.80027786 64.53351857 31.3352185 66.64507681 34 69 C31.40920869 71.98620709 28.42948193 73.51401061 24.94140625 75.3203125 C24.35584457 75.62444061 23.7702829 75.92856873 23.16697693 76.24191284 C21.93199344 76.88163649 20.6955535 77.51855534 19.45776367 78.15283203 C17.56879443 79.1217713 15.6855376 80.1011741 13.80273438 81.08203125 C4.20739622 86.03916625 4.20739622 86.03916625 0 87 C-6.87322317 79.45831546 -6.88720054 71.76947548 -6.796875 62.08984375 C-6.80092516 60.55244903 -6.80675524 59.01505808 -6.81427002 57.47767639 C-6.82307415 54.2691661 -6.81039482 51.06166379 -6.78222656 47.85327148 C-6.74801081 43.7584804 -6.76776419 39.66604665 -6.80366135 35.57134151 C-6.82543058 32.40115359 -6.81840332 29.23151702 -6.80289459 26.06131172 C-6.79891762 24.55236081 -6.80371355 23.04335836 -6.81777191 21.5344677 C-6.87532812 13.62379491 -6.88674463 7.31175924 -1.28448486 1.19532776 C-0.64866486 0.60364052 -0.64866486 0.60364052 0 0 Z " fill="#5D2E0F" transform="translate(33,22)"/>
<path d="M0 0 C0.99 0 1.98 0 3 0 C3 0.66 3 1.32 3 2 C6.3 2.66 9.6 3.32 13 4 C13 4.66 13 5.32 13 6 C13.99 5.67 14.98 5.34 16 5 C19 7 19 7 20 10 C22.31 10.33 24.62 10.66 27 11 C27 12.32 27 13.64 27 15 C27.61875 15.12375 28.2375 15.2475 28.875 15.375 C31 16 31 16 33 18 C31.66370027 21.1116871 30.40738876 22.731141 27.61328125 24.62890625 C26.92878906 25.10150879 26.24429688 25.57411133 25.5390625 26.06103516 C24.80429687 26.55651855 24.06953125 27.05200195 23.3125 27.5625 C21.77656561 28.62257136 20.2414263 29.6837955 18.70703125 30.74609375 C17.92666504 31.28347168 17.14629883 31.82084961 16.34228516 32.37451172 C12.6915356 34.90804211 9.09027418 37.50673439 5.5 40.125 C4.53960815 40.81638062 4.53960815 40.81638062 3.55981445 41.52172852 C0.27571104 43.80335631 0.27571104 43.80335631 -2 47 C-1.42290283 47.27529541 -0.84580566 47.55059082 -0.2512207 47.83422852 C1.96229224 48.98047343 3.96208912 50.24713639 6.01953125 51.65234375 C6.78700684 52.17602539 7.55448242 52.69970703 8.34521484 53.23925781 C9.15941895 53.79967773 9.97362305 54.36009766 10.8125 54.9375 C11.6576416 55.51725586 12.5027832 56.09701172 13.37353516 56.69433594 C19.22234198 60.72579163 24.98708958 64.85622014 30.68530273 69.09741211 C33.67842718 71.32023212 36.69118167 73.49153247 39.78125 75.578125 C40.38598145 75.98708008 40.99071289 76.39603516 41.61376953 76.81738281 C43.26638344 77.92706701 44.9259303 79.02640643 46.5859375 80.125 C49 82 49 82 50 85 C51.29355827 86.37195574 52.62298702 87.71182656 54 89 C52.5164999 88.57742724 51.03823576 88.13643678 49.5625 87.6875 C48.73878906 87.44386719 47.91507813 87.20023437 47.06640625 86.94921875 C46.38449219 86.63597656 45.70257813 86.32273437 45 86 C44.67 85.01 44.34 84.02 44 83 C36.54140619 78.52484371 28.75507099 79.56798252 20.65234375 81.5625 C19.83443359 81.7790625 19.83443359 81.7790625 19 82 C19 82.66 19 83.32 19 84 C13.58863108 87.6467921 8.61892087 89.36301211 2 89 C1.34 88.34 0.68 87.68 0 87 C9.57 82.05 19.14 77.1 29 72 C24.57894842 67.03800297 24.57894842 67.03800297 19 65 C16.23156139 65.94703703 13.81528811 67.37478365 11.3125 68.875 C4.1720297 73 4.1720297 73 2 73 C2.00112793 72.35450195 2.00225586 71.70900391 2.00341797 71.04394531 C1.99129201 68.11157282 1.93363592 65.18179589 1.875 62.25 C1.87886719 60.72632812 1.87886719 60.72632812 1.8828125 59.171875 C1.9388058 53.89043799 1.9388058 53.89043799 -0.39355469 49.40429688 C-2.19644509 48.13344117 -2.19644509 48.13344117 -5 47 C-3.86280581 43.58841744 -2.95657056 42.88145399 0 41 C0.66 41 1.32 41 2 41 C2 33.41 2 25.82 2 18 C6.94614403 19.97845761 11.41638573 22.36931655 16.0625 24.953125 C18.934283 26.28560468 18.934283 26.28560468 21.69921875 25.3046875 C24.37930379 23.78491093 26.66336803 22.00282741 29 20 C22.26568024 15.54803782 15.19887969 12.07394023 7.89453125 8.66210938 C7.03472656 8.24638672 6.17492187 7.83066406 5.2890625 7.40234375 C4.51256348 7.03616943 3.73606445 6.66999512 2.93603516 6.29272461 C0.68069288 4.78679304 -0.01428417 3.49125044 -1 1 C-0.67 0.67 -0.34 0.34 0 0 Z " fill="#E1E7CA" transform="translate(37,20)"/>
<path d="M0 0 C2.9375 1.25 2.9375 1.25 6 3 C6.65625 4.84375 6.65625 4.84375 7 7 C7.12503906 7.68578125 7.25007813 8.3715625 7.37890625 9.078125 C7.69161118 12.77735783 7.61741748 15.10834886 5.4609375 18.22265625 C1.40556986 22.4111151 -2.82944797 25.36594519 -8 28 C-8.86625 28.53625 -9.7325 29.0725 -10.625 29.625 C-13 31 -13 31 -15.3125 31.8125 C-20.82737737 34.24930628 -26.08054059 38.42729736 -30 43 C-30 43.66 -30 44.32 -30 45 C-29.01 45.33 -28.02 45.66 -27 46 C-26.360625 46.66 -25.72125 47.32 -25.0625 48 C-22.94325285 50.05502754 -21.86252086 50.59106845 -19 51 C-19 52.32 -19 53.64 -19 55 C-18.01 55 -17.02 55 -16 55 C-15.566875 55.763125 -15.13375 56.52625 -14.6875 57.3125 C-12.58000978 60.66887332 -10.54031825 61.33821797 -7 63 C-5.66666667 64.33333333 -4.33333333 65.66666667 -3 67 C-1.989375 67.495 -0.97875 67.99 0.0625 68.5 C4.56894049 70.8011611 4.56894049 70.8011611 6 74 C6.24320392 77.19060379 6.05461119 79.96799283 5 83 C2.0625 85.125 2.0625 85.125 -1 86 C-1.99 85.505 -1.99 85.505 -3 85 C-2.566875 84.37351562 -2.13375 83.74703125 -1.6875 83.1015625 C-1.130625 82.28429687 -0.57375 81.46703125 0 80.625 C0.556875 79.81289062 1.11375 79.00078125 1.6875 78.1640625 C3.17285844 76.13681813 3.17285844 76.13681813 3 74 C2.42475586 73.88970459 1.84951172 73.77940918 1.25683594 73.66577148 C-2.92159257 72.43312603 -6.23726053 69.57035131 -9.75 67.0625 C-10.93916016 66.23588867 -10.93916016 66.23588867 -12.15234375 65.39257812 C-12.90128906 64.86212891 -13.65023437 64.33167969 -14.421875 63.78515625 C-15.10862305 63.29926025 -15.79537109 62.81336426 -16.50292969 62.31274414 C-17.24397949 61.66293579 -17.24397949 61.66293579 -18 61 C-18 60.34 -18 59.68 -18 59 C-19.49719009 57.66437437 -19.49719009 57.66437437 -21.47265625 56.35546875 C-22.20806641 55.84306641 -22.94347656 55.33066406 -23.70117188 54.80273438 C-24.48041016 54.26970703 -25.25964844 53.73667969 -26.0625 53.1875 C-27.57431593 52.13946308 -29.08603569 51.09128743 -30.59765625 50.04296875 C-31.33387207 49.53556152 -32.07008789 49.0281543 -32.82861328 48.50537109 C-35.90948023 46.36947885 -38.95550112 44.18734913 -42 42 C-38.26224473 37.80642091 -33.70123935 34.96491532 -29.0625 31.875 C-23.20290349 27.92570549 -17.43378524 23.92684952 -11.875 19.5625 C-7.06416103 15.786515 -2.16077472 12.28049246 3 9 C2.25561083 5.8614943 1.24162641 2.97990339 0 0 Z " fill="#D2D9C8" transform="translate(99,24)"/>
<path d="M0 0 C1.32 0.33 2.64 0.66 4 1 C4 1.66 4 2.32 4 3 C4.78375 3.144375 5.5675 3.28875 6.375 3.4375 C9 4 9 4 11 5 C11.17426756 8.91610484 11.28084155 12.83121497 11.375 16.75 C11.45041016 18.41675781 11.45041016 18.41675781 11.52734375 20.1171875 C11.58285733 23.18893892 11.57653705 25.98091731 11 29 C8.0390625 31.640625 8.0390625 31.640625 5 33 C4.67 33.66 4.34 34.32 4 35 C5.175625 35.433125 5.175625 35.433125 6.375 35.875 C9 37 9 37 11 39 C11.22705078 41.33837891 11.22705078 41.33837891 11.1953125 44.2265625 C11.18564453 45.7734375 11.18564453 45.7734375 11.17578125 47.3515625 C11.15902344 48.43179688 11.14226563 49.51203125 11.125 50.625 C11.11597656 51.71296875 11.10695313 52.8009375 11.09765625 53.921875 C11.07403518 56.61467649 11.03816333 59.30736535 11 62 C7.37 63.65 3.74 65.3 0 67 C0 44.89 0 22.78 0 0 Z " fill="#2B1103" transform="translate(28,32)"/>
<path d="M0 0 C3.34998521 1.11666174 3.79340222 1.74694925 5.6875 4.5625 C6.12449219 5.20316406 6.56148437 5.84382813 7.01171875 6.50390625 C7.33785156 6.99761719 7.66398437 7.49132812 8 8 C6.60843293 11.30408205 5.13628983 12.93252184 2.21875 14.98828125 C1.46360107 15.52686768 0.70845215 16.0654541 -0.06958008 16.62036133 C-1.27263794 17.45796997 -1.27263794 17.45796997 -2.5 18.3125 C-3.31428467 18.88701904 -4.12856934 19.46153809 -4.9675293 20.0534668 C-6.5808734 21.19102147 -8.1963035 22.32562433 -9.81396484 23.45703125 C-11.64337279 24.74828189 -13.44760433 26.0622179 -15.23828125 27.40625 C-16.08777344 28.0353125 -16.93726562 28.664375 -17.8125 29.3125 C-18.87404297 30.11107422 -18.87404297 30.11107422 -19.95703125 30.92578125 C-22.45149154 32.23739995 -24.22023355 32.08802594 -27 32 C-28.68798827 33.43750191 -28.68798827 33.43750191 -30 35 C-30.66 35 -31.32 35 -32 35 C-32 35.66 -32 36.32 -32 37 C-32.66 37 -33.32 37 -34 37 C-34.32805226 30.65388566 -32.20741361 25.7361755 -28 21 C-22.82266851 16.45217349 -17.10118269 12.59406113 -11.41552734 8.71679688 C-8.11641434 6.37200582 -5.01646232 3.80235874 -1.92114258 1.19628906 C-1.28716553 0.80151367 -0.65318848 0.40673828 0 0 Z " fill="#58831E" transform="translate(93,22)"/>
<path d="M0 0 C8.4037765 1.27329947 14.40442733 5.46754584 21.0625 10.4375 C22.6151723 11.58299848 24.16854317 12.72755076 25.72265625 13.87109375 C26.4511377 14.40847168 27.17961914 14.94584961 27.93017578 15.49951172 C30.57127592 17.41413798 33.26669845 19.22007403 36 21 C34.54955729 25.10958767 32.48889248 28.43258745 30 32 C23.665717 28.09601333 17.43905535 24.03441049 11.3125 19.8125 C10.68843262 19.39693848 10.06436523 18.98137695 9.42138672 18.55322266 C7.67578125 17.33203125 7.67578125 17.33203125 5 15 C5 13.68 5 12.36 5 11 C4.401875 10.731875 3.80375 10.46375 3.1875 10.1875 C1.02775192 9.01506533 -0.35790256 7.80630718 -2 6 C-1.34 4.02 -0.68 2.04 0 0 Z " fill="#527925" transform="translate(65,77)"/>
<path d="M0 0 C0.33 0 0.66 0 1 0 C1.00142502 0.78625259 1.00285004 1.57250519 1.00431824 2.38258362 C1.02218874 9.81238945 1.06392087 17.24150522 1.13209057 24.6710062 C1.16630142 28.49014109 1.19146121 32.30887849 1.19555664 36.12817383 C1.19985251 39.81791142 1.22841947 43.50675329 1.27343178 47.19621086 C1.28636609 48.5998709 1.29072887 50.00363836 1.28615379 51.40735054 C1.2656456 59.61423758 1.38713635 64.81240232 7 71 C7 71.66 7 72.32 7 73 C8.175625 72.7834375 8.175625 72.7834375 9.375 72.5625 C12.29846392 72.10885905 15.11859048 71.84062267 18.0625 71.625 C22.10468015 71.25421355 24.6538273 70.40506163 28 68 C28.66 68 29.32 68 30 68 C30 67.34 30 66.68 30 66 C36.52581613 63.4081865 43.22438049 61.17560603 50.0859375 63.796875 C53.34496028 65.5261524 54.81098793 66.4329638 56 70 C54.5199159 69.88637738 53.04089926 69.75877092 51.5625 69.625 C50.73878906 69.55539063 49.91507813 69.48578125 49.06640625 69.4140625 C48.38449219 69.27742188 47.70257813 69.14078125 47 69 C46.67 68.34 46.34 67.68 46 67 C46.66 67 47.32 67 48 67 C47.01 66.01 47.01 66.01 46 65 C40.98257989 66.54129899 36.3856505 68.03323643 32 71 C29 73 29 73 25.8125 73.375 C22.45472562 73.92545482 20.81469785 74.49161612 17.9375 76.0625 C13.1386896 78.60522227 9.84253127 78.54593519 4.625 77 C3.75875 76.67 2.8925 76.34 2 76 C1.896875 75.278125 1.79375 74.55625 1.6875 73.8125 C1.15904206 70.96240172 1.15904206 70.96240172 -0.50073242 68.73535156 C-2.29968607 65.45323519 -2.49408091 63.15154089 -2.67578125 59.421875 C-2.70859695 58.77684021 -2.74141266 58.13180542 -2.77522278 57.46722412 C-3.13514868 49.58736583 -3.18605919 41.6968684 -3.18530273 33.81005859 C-3.18750936 31.23909409 -3.20580989 28.6685466 -3.22460938 26.09765625 C-3.28283128 8.89132071 -3.28283128 8.89132071 -1 1 C-0.67 0.67 -0.34 0.34 0 0 Z " fill="#DCDFD0" transform="translate(26,36)"/>
<path d="M0 0 C3.34998521 1.11666174 3.79340222 1.74694925 5.6875 4.5625 C6.34298828 5.52349609 6.34298828 5.52349609 7.01171875 6.50390625 C7.33785156 6.99761719 7.66398437 7.49132812 8 8 C6.45749264 12.58467467 2.80296691 14.62305097 -1 17.25 C-1.64195313 17.70890625 -2.28390625 18.1678125 -2.9453125 18.640625 C-7.72442336 22 -7.72442336 22 -10 22 C-10.4021875 21.0409375 -10.4021875 21.0409375 -10.8125 20.0625 C-11.88667752 17.66868314 -11.88667752 17.66868314 -15 17 C-14.84794216 12.67268719 -14.30601863 11.28833207 -11.09375 8.26171875 C-9.90830534 7.38649625 -8.70981243 6.52871778 -7.5 5.6875 C-6.89285156 5.24599609 -6.28570312 4.80449219 -5.66015625 4.34960938 C-4.1129504 3.22452539 -2.55711559 2.11132846 -1 1 C-0.67 0.67 -0.34 0.34 0 0 Z " fill="#477020" transform="translate(93,22)"/>
<path d="M0 0 C1.65 0 3.3 0 5 0 C5 1.32 5 2.64 5 4 C5.99 4 6.98 4 8 4 C8 4.99 8 5.98 8 7 C9.15628906 7.20302734 9.15628906 7.20302734 10.3359375 7.41015625 C18.42978925 9.14752546 18.42978925 9.14752546 20.17578125 11.7578125 C20.6875 13.6875 20.6875 13.6875 21 17 C21.66 17 22.32 17 23 17 C24.20409454 20.35770363 24.98982706 23.41912458 25 27 C22.98612155 31.05443079 20.0966155 34.03233131 15.96875 35.9375 C14.0625 36.5 14.0625 36.5 11 37 C11 36.34 11 35.68 11 35 C10.071875 34.896875 9.14375 34.79375 8.1875 34.6875 C3.33838522 33.6416125 1.81632605 30.88921217 -1 27 C-0.21625 27.165 0.5675 27.33 1.375 27.5 C3.88208039 28.0623707 3.88208039 28.0623707 6 28 C5.01 27.34 4.02 26.68 3 26 C3.33 25.34 3.66 24.68 4 24 C6.64 25.65 9.28 27.3 12 29 C12.825 27.741875 13.65 26.48375 14.5 25.1875 C14.9640625 24.47980469 15.428125 23.77210937 15.90625 23.04296875 C17.23599375 20.94541876 17.23599375 20.94541876 17 18 C17.99 18.33 18.98 18.66 20 19 C18.54955729 23.10958767 16.48889248 26.43258745 14 30 C16.31 29.34 18.62 28.68 21 28 C21.05447047 26.58376784 21.09300508 25.16691809 21.125 23.75 C21.14820312 22.96109375 21.17140625 22.1721875 21.1953125 21.359375 C20.98032972 18.76238303 20.39150854 17.19088578 19 15 C17.67851173 14.62243192 16.34164079 14.2981424 15 14 C11.75 12.0625 11.75 12.0625 9 10 C9 9.34 9 8.68 9 8 C8.071875 7.7525 7.14375 7.505 6.1875 7.25 C2.82214391 5.93025251 1.74084779 5.09484051 0 2 C0 1.34 0 0.68 0 0 Z " fill="#D8DECD" transform="translate(83,79)"/>
<path d="M0 0 C4.3581158 2.87576349 8.6915898 5.74863991 12.875 8.875 C15.7836209 11.28115501 15.7836209 11.28115501 19 11 C19.495 12.485 19.495 12.485 20 14 C21.29355827 15.37195574 22.62298702 16.71182656 24 18 C22.5164999 17.57742724 21.03823576 17.13643678 19.5625 16.6875 C18.73878906 16.44386719 17.91507813 16.20023438 17.06640625 15.94921875 C16.04353516 15.47935547 16.04353516 15.47935547 15 15 C14.505 13.515 14.505 13.515 14 12 C6.54140619 7.52484371 -1.24492901 8.56798252 -9.34765625 10.5625 C-10.16556641 10.7790625 -10.16556641 10.7790625 -11 11 C-11 11.66 -11 12.32 -11 13 C-16.41136892 16.6467921 -21.38107913 18.36301211 -28 18 C-28.66 17.34 -29.32 16.68 -30 16 C-29.12674072 15.55084229 -28.25348145 15.10168457 -27.35375977 14.63891602 C-24.12311357 12.97661087 -20.89375912 11.31180993 -17.66479492 9.64624023 C-16.26540845 8.92485171 -14.86566961 8.20414631 -13.46557617 7.48413086 C-11.4565949 6.4508389 -9.44888147 5.41512048 -7.44140625 4.37890625 C-6.81222794 4.05596085 -6.18304962 3.73301544 -5.5348053 3.40028381 C-2.57470391 1.98099391 -2.57470391 1.98099391 0 0 Z " fill="#BFC4B5" transform="translate(67,91)"/>
<path d="M0 0 C0.33 0 0.66 0 1 0 C1.02314315 8.31001875 1.04092518 16.62002408 1.05181217 24.93006706 C1.05703667 28.7885133 1.06412649 32.64693753 1.07543945 36.50537109 C1.08628368 40.2271153 1.09228011 43.9488383 1.09487724 47.67059708 C1.09672871 49.09240172 1.10034403 50.51420517 1.10573006 51.93600082 C1.11296072 53.9233055 1.11340823 55.91063139 1.11352539 57.89794922 C1.115746 59.03046112 1.11796661 60.16297302 1.12025452 61.32980347 C1 64 1 64 0 66 C-0.66 65.67 -1.32 65.34 -2 65 C-3.67242006 54.87028498 -3.18628067 44.13135059 -3.18530273 33.88549805 C-3.18750584 31.30566284 -3.20578971 28.72624543 -3.22460938 26.14648438 C-3.28287861 8.88199428 -3.28287861 8.88199428 -1 1 C-0.67 0.67 -0.34 0.34 0 0 Z " fill="#E3DECF" transform="translate(26,36)"/>
<path d="M0 0 C0 3 0 3 -1 5 C-2.66279327 6.0064275 -4.32983484 7.00585407 -6 8 C-6.556875 8.556875 -7.11375 9.11375 -7.6875 9.6875 C-8.120625 10.120625 -8.55375 10.55375 -9 11 C-9.66 11 -10.32 11 -11 11 C-11.33 12.65 -11.66 14.3 -12 16 C-16.455 17.485 -16.455 17.485 -21 19 C-21 19.99 -21 20.98 -21 22 C-23.15234375 23.53515625 -23.15234375 23.53515625 -25.9375 25.0625 C-29.62904618 26.88209081 -29.62904618 26.88209081 -32 30 C-34.0625 31.125 -34.0625 31.125 -36 32 C-35.67 34.31 -35.34 36.62 -35 39 C-38.5786304 37.34832443 -41.74820188 35.21713508 -45 33 C-41.26224473 28.80642091 -36.70123935 25.96491532 -32.0625 22.875 C-26.20290349 18.92570549 -20.43378524 14.92684952 -14.875 10.5625 C-10.06416103 6.786515 -5.16077472 3.28049246 0 0 Z " fill="#B8BCB0" transform="translate(102,33)"/>
<path d="M0 0 C3.00513579 0.47953449 5.01624978 1.50262716 7.453125 3.28515625 C8.071875 3.73310547 8.690625 4.18105469 9.328125 4.64257812 C9.96234375 5.11115234 10.5965625 5.57972656 11.25 6.0625 C11.8996875 6.53494141 12.549375 7.00738281 13.21875 7.49414062 C14.81653662 8.65723529 16.40881803 9.82788601 18 11 C17.01 12.485 17.01 12.485 16 14 C16 13.01 16 12.02 16 11 C14.35 11 12.7 11 11 11 C10.67 12.98 10.34 14.96 10 17 C11.98 18.32 13.96 19.64 16 21 C15.67 21.99 15.34 22.98 15 24 C12.24930822 22.06348069 9.49957006 20.12561158 6.75 18.1875 C5.97269531 17.64029297 5.19539063 17.09308594 4.39453125 16.52929688 C3.64042969 15.99755859 2.88632812 15.46582031 2.109375 14.91796875 C1.41811523 14.43094482 0.72685547 13.9439209 0.01464844 13.44213867 C-2.01319476 11.99055484 -4.01061534 10.50374075 -6 9 C-5.625 7.0625 -5.625 7.0625 -5 5 C-4.34 4.67 -3.68 4.34 -3 4 C-2.34 3.01 -1.68 2.02 -1 1 C-0.67 0.67 -0.34 0.34 0 0 Z " fill="#60941B" transform="translate(54,67)"/>
<path d="M0 0 C2.55979415 1.52626908 4.92835565 3.27746092 7.3125 5.0625 C7.95767578 5.53494141 8.60285156 6.00738281 9.26757812 6.49414062 C10.85070051 7.65509704 12.42613569 8.82652336 14 10 C12.45657029 14.08105062 10.50065501 17.41572782 8 21 C5.04393189 19.62753981 2.40408404 18.21956005 0 16 C-0.74224846 13.04737927 -0.41758138 11.0796627 0 8 C-1.98 8.33 -3.96 8.66 -6 9 C-5.979375 8.2575 -5.95875 7.515 -5.9375 6.75 C-5.99328688 4.29537721 -6.3069904 2.33890739 -7 0 C-4.16824611 -1.41587695 -3.03072387 -0.94056948 0 0 Z " fill="#466E20" transform="translate(87,88)"/>
<path d="M0 0 C0.763125 0.495 1.52625 0.99 2.3125 1.5 C4.92363751 3.24368308 4.92363751 3.24368308 8 3 C8.66 3.33 9.32 3.66 10 4 C10.6328125 6.50390625 10.6328125 6.50390625 11.125 9.5625 C11.37636719 11.08037109 11.37636719 11.08037109 11.6328125 12.62890625 C11.75398438 13.41136719 11.87515625 14.19382812 12 15 C11.34 15.33 10.68 15.66 10 16 C9.505 11.545 9.505 11.545 9 7 C7.68 6.67 6.36 6.34 5 6 C5.350625 6.5775 5.70125 7.155 6.0625 7.75 C7.18593613 10.44624671 7.00995651 11.30797606 6 14 C4.61157227 15.34936523 4.61157227 15.34936523 2.81640625 16.55859375 C1.80900391 17.25142456 1.80900391 17.25142456 0.78125 17.95825195 C0.0490625 18.44640381 -0.683125 18.93455566 -1.4375 19.4375 C-2.98902463 20.501521 -4.53978016 21.56666418 -6.08984375 22.6328125 C-6.89663574 23.18356445 -7.70342773 23.73431641 -8.53466797 24.30175781 C-12.56625919 27.07891651 -16.53351907 29.94346107 -20.5 32.8125 C-21.21599365 33.32675537 -21.9319873 33.84101074 -22.66967773 34.37084961 C-27.87541466 38.12723811 -32.95484011 42.03099337 -38 46 C-37.45061768 46.36762451 -36.90123535 46.73524902 -36.33520508 47.11401367 C-33.82369564 48.79938611 -31.31809333 50.49334608 -28.8125 52.1875 C-27.94818359 52.76564453 -27.08386719 53.34378906 -26.19335938 53.93945312 C-21.69225133 56.9919287 -17.66391821 59.9719657 -14 64 C-19.45557438 61.98435818 -23.85824749 58.90394794 -28.625 55.625 C-29.91277344 54.75875 -29.91277344 54.75875 -31.2265625 53.875 C-32.0515625 53.31039062 -32.8765625 52.74578125 -33.7265625 52.1640625 C-34.47502441 51.65311035 -35.22348633 51.1421582 -35.99462891 50.61572266 C-38.08183499 48.93406574 -39.49174964 47.2047335 -41 45 C-32.14626688 38.27926584 -23.22196692 31.69335536 -14.11572266 25.31835938 C-7.97498423 21.00997267 -1.96358067 16.55024652 4 12 C2.93763762 9.23043519 1.89616921 6.83463985 0.3125 4.3125 C-0.120625 3.549375 -0.55375 2.78625 -1 2 C-0.67 1.34 -0.34 0.68 0 0 Z " fill="#E1F0CE" transform="translate(96,20)"/>
<path d="M0 0 C3.81341333 1.90670667 7.24992053 4.09225302 10.75 6.5 C11.35199219 6.90347656 11.95398438 7.30695313 12.57421875 7.72265625 C14.08722202 8.76220271 15.54872163 9.87588843 17 11 C17 11.66 17 12.32 17 13 C14.54429825 14.33838733 12.08570084 15.67086232 9.625 17 C8.92632812 17.3815625 8.22765625 17.763125 7.5078125 18.15625 C2.2265625 21 2.2265625 21 0 21 C0 14.07 0 7.14 0 0 Z " fill="#BEC0B2" transform="translate(39,72)"/>
<path d="M0 0 C3.90937449 1.56374979 7.56463799 3.23047635 11.3125 5.125 C12.38113281 5.66382813 13.44976562 6.20265625 14.55078125 6.7578125 C15.76314453 7.37269531 15.76314453 7.37269531 17 8 C16.34 9.32 15.68 10.64 15 12 C14.34 12 13.68 12 13 12 C13 11.34 13 10.68 13 10 C12.4225 9.855625 11.845 9.71125 11.25 9.5625 C9.16666667 9.04166667 7.08333333 8.52083333 5 8 C5 8.66 5 9.32 5 10 C4.34 10 3.68 10 3 10 C3.66 12.97 4.32 15.94 5 19 C3.35 19.99 1.7 20.98 0 22 C0 14.74 0 7.48 0 0 Z " fill="#B3B6A8" transform="translate(39,38)"/>
<path d="M0 0 C-1 3 -1 3 -3 4 C-3.44122192 4.92981689 -3.44122192 4.92981689 -3.89135742 5.87841797 C-5.18857506 8.36087145 -6.45582555 9.34718176 -8.73828125 10.9453125 C-9.47626953 11.46480469 -10.21425781 11.98429687 -10.97460938 12.51953125 C-11.74611328 13.04933594 -12.51761719 13.57914063 -13.3125 14.125 C-14.07240234 14.66253906 -14.83230469 15.20007813 -15.61523438 15.75390625 C-19.28649874 18.31198968 -22.70175298 20.61014767 -27 22 C-27 21.01 -27 20.02 -27 19 C-28.94009522 17.29467677 -28.94009522 17.29467677 -31 16 C-29.7625 15.67 -28.525 15.34 -27.25 15 C-26.20585938 14.7215625 -26.20585938 14.7215625 -25.140625 14.4375 C-23 14 -23 14 -19 14 C-18.67 13.01 -18.34 12.02 -18 11 C-17.01 11 -16.02 11 -15 11 C-15 10.34 -15 9.68 -15 9 C-14.01 9 -13.02 9 -12 9 C-12 8.34 -12 7.68 -12 7 C-10.35 6.67 -8.7 6.34 -7 6 C-7 4.35 -7 2.7 -7 1 C-3.375 -1.125 -3.375 -1.125 0 0 Z " fill="#E0E8D3" transform="translate(95,18)"/>
<path d="M0 0 C0.66 0.33 1.32 0.66 2 1 C1.54625 1.845625 1.0925 2.69125 0.625 3.5625 C-1.02858414 7.06046645 -2.03009521 10.26959695 -3 14 C-2.34 14 -1.68 14 -1 14 C-1 13.34 -1 12.68 -1 12 C-0.360625 11.896875 0.27875 11.79375 0.9375 11.6875 C1.618125 11.460625 2.29875 11.23375 3 11 C3.33 10.01 3.66 9.02 4 8 C5.32 8.66 6.64 9.32 8 10 C3.71 12.97 -0.58 15.94 -5 19 C-6.0013988 15.99580359 -6.51421457 13.12290635 -7 10 C-8.98 10.33 -10.96 10.66 -13 11 C-9.0299782 6.78185183 -4.69159716 3.38772897 0 0 Z " fill="#62941E" transform="translate(62,45)"/>
<path d="M0 0 C0 0.99 0 1.98 0 3 C-4.24488879 5.42565074 -7.11511772 6.33306016 -12 6 C-14.32357511 5.81509993 -14.32357511 5.81509993 -17 8 C-18.32 6.68 -19.64 5.36 -21 4 C-20.34 3.67 -19.68 3.34 -19 3 C-18.67 2.01 -18.34 1.02 -18 0 C-11.75859225 -2.84933832 -6.50765783 -1.52982915 0 0 Z " fill="#642905" transform="translate(66,90)"/>
<path d="M0 0 C0.721875 0.12375 1.44375 0.2475 2.1875 0.375 C3.1775 2.355 4.1675 4.335 5.1875 6.375 C0.7325 9.345 0.7325 9.345 -3.8125 12.375 C-5.1325 11.715 -6.4525 11.055 -7.8125 10.375 C-7.8125 6.375 -7.8125 6.375 -5.625 3.125 C-2.8125 0.375 -2.8125 0.375 0 0 Z " fill="#537B20" transform="translate(78.8125,38.625)"/>
<path d="M0 0 C3 2.1875 3 2.1875 4 5.1875 C2.5199159 5.07387738 1.04089926 4.94627092 -0.4375 4.8125 C-1.26121094 4.74289063 -2.08492187 4.67328125 -2.93359375 4.6015625 C-3.61550781 4.46492188 -4.29742187 4.32828125 -5 4.1875 C-5.33 3.5275 -5.66 2.8675 -6 2.1875 C-5.34 2.1875 -4.68 2.1875 -4 2.1875 C-4.66 1.5275 -5.32 0.8675 -6 0.1875 C-11.01742011 1.72879899 -15.6143495 3.22073643 -20 6.1875 C-20.99 6.8475 -21.98 7.5075 -23 8.1875 C-23.66 7.5275 -24.32 6.8675 -25 6.1875 C-24.01 5.8575 -23.02 5.5275 -22 5.1875 C-22 3.8675 -22 2.5475 -22 1.1875 C-14.62721203 -1.74069948 -7.39242952 -3.92251362 0 0 Z " fill="#DADCD0" transform="translate(78,100.8125)"/>
<path d="M0 0 C0.33 0 0.66 0 1 0 C1.02917237 4.52081966 1.0468568 9.04161488 1.0625 13.5625 C1.07087891 14.83931641 1.07925781 16.11613281 1.08789062 17.43164062 C1.09111328 18.67236328 1.09433594 19.91308594 1.09765625 21.19140625 C1.10289307 22.32779541 1.10812988 23.46418457 1.11352539 24.63500977 C0.99476072 28.15529671 0.53785995 31.52129362 0 35 C-0.21100402 37.6440627 -0.39850214 40.290106 -0.5625 42.9375 C-0.60568359 43.62134766 -0.64886719 44.30519531 -0.69335938 45.00976562 C-0.79803995 46.67302365 -0.89937594 48.33649163 -1 50 C-1.33 50 -1.66 50 -2 50 C-2.04988602 44.6472302 -2.08594697 39.29459934 -2.10986328 33.94165039 C-2.11984632 32.12522012 -2.1334375 30.30880561 -2.15087891 28.49243164 C-2.3319431 9.13453923 -2.3319431 9.13453923 0 0 Z " fill="#E4E6D7" transform="translate(25,37)"/>
<path d="M0 0 C4.75 0.875 4.75 0.875 7 2 C7 2.99 7 3.98 7 5 C7.639375 5.12375 8.27875 5.2475 8.9375 5.375 C9.618125 5.58125 10.29875 5.7875 11 6 C11.33 6.66 11.66 7.32 12 8 C11.67 8.66 11.34 9.32 11 10 C9.68 10 8.36 10 7 10 C7 10.66 7 11.32 7 12 C3.06326356 10.68775452 0.77280706 9.08089673 -2 6 C-1.34 4.02 -0.68 2.04 0 0 Z " fill="#538319" transform="translate(65,77)"/>
<path d="M0 0 C1.32 0.33 2.64 0.66 4 1 C3.34 1 2.68 1 2 1 C2 2.65 2 4.3 2 6 C1.34 6 0.68 6 0 6 C-0.2475 6.5775 -0.495 7.155 -0.75 7.75 C-2.16683317 10.3002997 -3.87627537 12.01785701 -6 14 C-9.10742423 12.53181332 -11.90471739 10.79975 -14.75 8.875 C-15.54921875 8.33617188 -16.3484375 7.79734375 -17.171875 7.2421875 C-17.77515625 6.83226563 -18.3784375 6.42234375 -19 6 C-18.67 5.01 -18.34 4.02 -18 3 C-17.34 3.33 -16.68 3.66 -16 4 C-16 4.66 -16 5.32 -16 6 C-15.34 6 -14.68 6 -14 6 C-14 6.66 -14 7.32 -14 8 C-12.68 8 -11.36 8 -10 8 C-10 8.66 -10 9.32 -10 10 C-8.68 10 -7.36 10 -6 10 C-5.67 8.35 -5.34 6.7 -5 5 C-4.01 4.67 -3.02 4.34 -2 4 C-0.79117904 1.99983534 -0.79117904 1.99983534 0 0 Z " fill="#6AA024" transform="translate(54,61)"/>
<path d="M0 0 C5.37628645 1.24068149 8.79784853 3.99268591 12.94921875 7.44140625 C15.01233928 9.18314854 15.01233928 9.18314854 18 10 C20.20050775 11.8861495 20.94036842 13.26719415 21.17578125 16.16015625 C21.05921952 18.63206878 20.81378975 20.66035447 20 23 C17.0625 25.125 17.0625 25.125 14 26 C13.34 25.67 12.68 25.34 12 25 C12.433125 24.37351562 12.86625 23.74703125 13.3125 23.1015625 C13.869375 22.28429687 14.42625 21.46703125 15 20.625 C15.556875 19.81289062 16.11375 19.00078125 16.6875 18.1640625 C18.17285844 16.13681813 18.17285844 16.13681813 18 14 C17.0409375 13.8453125 17.0409375 13.8453125 16.0625 13.6875 C15.0415625 13.3471875 15.0415625 13.3471875 14 13 C13.67 12.01 13.34 11.02 13 10 C10.83904399 8.36421657 8.7006937 6.85358809 6.4375 5.375 C4.27120264 3.94138751 2.1304634 2.48747236 0 1 C0 0.67 0 0.34 0 0 Z " fill="#C6CDBD" transform="translate(84,84)"/>
<path d="M0 0 C0 3 0 3 -1 5 C-2.66279327 6.0064275 -4.32983484 7.00585407 -6 8 C-6.556875 8.556875 -7.11375 9.11375 -7.6875 9.6875 C-8.120625 10.120625 -8.55375 10.55375 -9 11 C-9.66 11 -10.32 11 -11 11 C-11 11.66 -11 12.32 -11 13 C-15.54926056 16.07744097 -20.56345446 18.95451047 -26 20 C-21.7528134 15.4175092 -16.96174822 11.91731435 -11.875 8.3125 C-11.06417969 7.73177734 -10.25335938 7.15105469 -9.41796875 6.55273438 C-6.30348386 4.32626377 -3.18573049 2.12382033 0 0 Z " fill="#A6ACA0" transform="translate(102,33)"/>
<path d="M0 0 C2.9375 0.875 2.9375 0.875 6 3 C6.85174772 6.3266373 6.98714943 9.5753227 7 13 C6.34 13 5.68 13 5 13 C4.67 13.66 4.34 14.32 4 15 C2.57658265 16.06898076 1.11167966 17.08340838 -0.375 18.0625 C-1.16648437 18.58972656 -1.95796875 19.11695312 -2.7734375 19.66015625 C-5 21 -5 21 -8 22 C-8 20 -8 20 -6.57421875 18.4921875 C-5.64029297 17.69167969 -5.64029297 17.69167969 -4.6875 16.875 C-4.07261719 16.33617188 -3.45773438 15.79734375 -2.82421875 15.2421875 C-1 14 -1 14 2 14 C3.257856 8.57496919 3.257856 8.57496919 1.5625 3.625 C1.046875 3.08875 0.53125 2.5525 0 2 C0 1.34 0 0.68 0 0 Z " fill="#C9CEC0" transform="translate(99,24)"/>
<path d="M0 0 C0.33 1.98 0.66 3.96 1 6 C0.01 6.495 0.01 6.495 -1 7 C-2.13350534 9.01669827 -2.13350534 9.01669827 -3 11 C-6 11 -6 11 -9 10 C-8.51309271 3.54847841 -8.51309271 3.54847841 -6.1875 1.0625 C-4 0 -4 0 0 0 Z " fill="#649E1A" transform="translate(55,55)"/>
<path d="M0 0 C2.76276177 0.52268466 5.3260876 1.10869587 8 2 C8.33 2.99 8.66 3.98 9 5 C6.03 6.65 3.06 8.3 0 10 C-2.1519437 6.77208445 -2.20086443 5.71599191 -2 2 C-1.34 2 -0.68 2 0 2 C0 1.34 0 0.68 0 0 Z " fill="#D2D6C7" transform="translate(44,46)"/>
<path d="M0 0 C1.16945792 0.80847729 2.33550461 1.62189112 3.5 2.4375 C4.1496875 2.88996094 4.799375 3.34242187 5.46875 3.80859375 C5.9740625 4.20175781 6.479375 4.59492187 7 5 C7 5.33 7 5.66 7 6 C0.00998353 7.09751783 -6.97234063 8.17321655 -14 9 C-9.7045025 5.25876024 -5.00099548 2.65848126 0 0 Z " fill="#B3B8AA" transform="translate(67,91)"/>
<path d="M0 0 C5.65611463 -0.56561146 9.22642128 1.28608722 14 4 C12.61807446 8.75349085 10.40068503 10.55069283 6.375 13.3125 C5.37210938 14.00988281 4.36921875 14.70726562 3.3359375 15.42578125 C2.17964844 16.20501953 2.17964844 16.20501953 1 17 C0.34 16.34 -0.32 15.68 -1 15 C2.63 12.36 6.26 9.72 10 7 C8.72125 6.21625 7.4425 5.4325 6.125 4.625 C3.78013764 3.18782629 1.95309499 1.95309499 0 0 Z " fill="#D2CDB6" transform="translate(56,33)"/>
<path d="M0 0 C3.34998521 1.11666174 3.79340222 1.74694925 5.6875 4.5625 C6.12449219 5.20316406 6.56148438 5.84382813 7.01171875 6.50390625 C7.33785156 6.99761719 7.66398437 7.49132812 8 8 C7.1875 9.9375 7.1875 9.9375 6 12 C5.01 12.33 4.02 12.66 3 13 C3 12.01 3 11.02 3 10 C2.34 9.67 1.68 9.34 1 9 C1 8.01 1 7.02 1 6 C0.34 6 -0.32 6 -1 6 C-1.042721 4.33388095 -1.04063832 2.66617115 -1 1 C-0.67 0.67 -0.34 0.34 0 0 Z " fill="#456925" transform="translate(93,22)"/>
<path d="M0 0 C0 2 0 2 -1.20703125 3.51953125 C-6.60355583 7.9754851 -14.30078054 8.37217886 -21 8 C-21 7.34 -21 6.68 -21 6 C-21.66 5.67 -22.32 5.34 -23 5 C-19.30705083 4.31971989 -15.67728481 3.89891548 -11.9375 3.625 C-7.52017865 3.2198021 -3.98449082 0 0 0 Z " fill="#D3D7C9" transform="translate(56,104)"/>
<path d="M0 0 C-0.33 1.32 -0.66 2.64 -1 4 C-1.639375 4.103125 -2.27875 4.20625 -2.9375 4.3125 C-3.618125 4.539375 -4.29875 4.76625 -5 5 C-5.33 5.99 -5.66 6.98 -6 8 C-8.76250036 9.38125018 -10.94731099 9.19079306 -14 9 C-14.66 8.34 -15.32 7.68 -16 7 C-13.71070947 5.82845707 -11.41881638 4.66261926 -9.125 3.5 C-8.47402344 3.16613281 -7.82304688 2.83226563 -7.15234375 2.48828125 C-2.2265625 0 -2.2265625 0 0 0 Z " fill="#B0AB9B" transform="translate(53,100)"/>
<path d="M0 0 C0.66 0 1.32 0 2 0 C1.12577423 5.11085837 -2.17534533 7.75207897 -6 11 C-8.27736523 12.52467672 -10.55556373 13.73251453 -13 15 C-14.66979326 15.99477045 -16.33779419 16.99260254 -18 18 C-18.66 17.34 -19.32 16.68 -20 16 C-19.1646875 15.45472656 -19.1646875 15.45472656 -18.3125 14.8984375 C-14.36357746 12.29695137 -10.44730551 9.66002558 -6.625 6.875 C-5.68527344 6.19050781 -5.68527344 6.19050781 -4.7265625 5.4921875 C-2.88412956 4.01172216 -2.88412956 4.01172216 -1.3984375 1.8203125 C-0.93695313 1.21960937 -0.47546875 0.61890625 0 0 Z " fill="#E0E3D4" transform="translate(104,37)"/>
<path d="M0 0 C2.5184361 1.46908772 4.30493668 3.15131853 6.25 5.3125 C-0.375 5.4375 -0.375 5.4375 -3.75 4.3125 C-5.4515625 4.8075 -5.4515625 4.8075 -7.1875 5.3125 C-10.64723397 6.28365339 -11.53384732 6.33035931 -14.75 5.3125 C-12.86633147 4.24899337 -10.9674671 3.21236771 -9.0625 2.1875 C-8.00675781 1.60742188 -6.95101562 1.02734375 -5.86328125 0.4296875 C-2.75 -0.6875 -2.75 -0.6875 0 0 Z " fill="#623A1B" transform="translate(58.75,84.6875)"/>
<path d="M0 0 C0 3 0 3 -1.8125 5.125 C-4 7 -4 7 -7 8 C-9.24064723 10.32363416 -9.96556146 11.49490144 -10.1875 14.75 C-10.125625 15.4925 -10.06375 16.235 -10 17 C-13.465 15.02 -13.465 15.02 -17 13 C-13.75042141 9.49302905 -10.18687827 6.90631127 -6.25 4.25 C-5.64800781 3.83878906 -5.04601562 3.42757812 -4.42578125 3.00390625 C-2.95313343 1.99876568 -1.47692498 0.99884522 0 0 Z " fill="#A4AA9E" transform="translate(74,53)"/>
<path d="M0 0 C1.125 1.6875 1.125 1.6875 2 4 C1.00386321 8.73164974 -2.18334941 12.18678806 -6 15 C-9.375 15.875 -9.375 15.875 -12 16 C-12 15.34 -12 14.68 -12 14 C-12.928125 13.896875 -13.85625 13.79375 -14.8125 13.6875 C-18.03254358 12.9929808 -19.02579865 12.52259061 -21 10 C-18 10 -18 10 -15.8125 11.0625 C-11.97221203 12.34259599 -8.87475139 12.10243972 -5 11 C-2.43661311 9.52006844 -2.43661311 9.52006844 -1 7 C-0.19234122 3.35278304 -0.19234122 3.35278304 0 0 Z " fill="#DCE0D1" transform="translate(106,100)"/>
<path d="M0 0 C5.75 1.875 5.75 1.875 8 3 C8 3.66 8 4.32 8 5 C8.55171875 5.09152344 9.1034375 5.18304688 9.671875 5.27734375 C12.65059876 6.2019476 14.72778078 7.73720977 17.25 9.5625 C18.14203125 10.20316406 19.0340625 10.84382813 19.953125 11.50390625 C20.62859375 11.99761719 21.3040625 12.49132812 22 13 C21.67 13.99 21.34 14.98 21 16 C18.2453769 14.08991236 15.4971712 12.17078637 12.75 10.25 C11.97269531 9.71117188 11.19539063 9.17234375 10.39453125 8.6171875 C6.62764525 5.97714774 3.10113374 3.43458898 0 0 Z " fill="#668630" transform="translate(48,75)"/>
<path d="M0 0 C2.00720923 0.28674418 4.0085944 0.61866701 6 1 C6.33 2.65 6.66 4.3 7 6 C4 8 4 8 1.8125 7.625 C1.214375 7.41875 0.61625 7.2125 0 7 C-0.38133299 5.0085944 -0.71325582 3.00720923 -1 1 C-0.67 0.67 -0.34 0.34 0 0 Z " fill="#D2D4C5" transform="translate(44,81)"/>
<path d="M0 0 C0.66 1.65 1.32 3.3 2 5 C-0.97 5.66 -3.94 6.32 -7 7 C-7.33 5.68 -7.66 4.36 -8 3 C-5.85915306 -0.33020635 -3.75910189 -0.30479204 0 0 Z " fill="#4C7A19" transform="translate(81,39)"/>
<path d="M0 0 C0.763125 0.495 1.52625 0.99 2.3125 1.5 C4.92363751 3.24368308 4.92363751 3.24368308 8 3 C8.66 3.33 9.32 3.66 10 4 C10.6328125 6.50390625 10.6328125 6.50390625 11.125 9.5625 C11.29257813 10.57441406 11.46015625 11.58632813 11.6328125 12.62890625 C11.75398438 13.41136719 11.87515625 14.19382812 12 15 C11.01 15.495 11.01 15.495 10 16 C9.67 13.03 9.34 10.06 9 7 C5.20211302 5.87873219 5.20211302 5.87873219 2 6 C0.3125 4.5 0.3125 4.5 -1 3 C-0.67 2.01 -0.34 1.02 0 0 Z " fill="#DADFD0" transform="translate(96,20)"/>
<path d="M0 0 C11.70615034 7.11389522 11.70615034 7.11389522 16 12 C15.34 12.66 14.68 13.32 14 14 C14 13.01 14 12.02 14 11 C12.02 11 10.04 11 8 11 C8 10.01 8 9.02 8 8 C7.4225 7.7525 6.845 7.505 6.25 7.25 C3.67060021 5.81700012 1.93878408 4.21575324 0 2 C0 1.34 0 0.68 0 0 Z " fill="#648830" transform="translate(56,67)"/>
<path d="M0 0 C0.66 0.33 1.32 0.66 2 1 C1.67777813 4.0074041 0.99223238 5.00776762 -1.1875 7.1875 C-4.23053519 9.14856712 -6.42681564 9.66761076 -10 10 C-10.33 9.34 -10.66 8.68 -11 8 C-7.37 5.36 -3.74 2.72 0 0 Z " fill="#587F2A" transform="translate(77,34)"/>
<path d="M0 0 C2.3125 1.0625 2.3125 1.0625 4 2 C3.34 3.32 2.68 4.64 2 6 C1.34 6 0.68 6 0 6 C0 5.34 0 4.68 0 4 C-0.5775 3.855625 -1.155 3.71125 -1.75 3.5625 C-3.83333333 3.04166667 -5.91666667 2.52083333 -8 2 C-8.33 2.66 -8.66 3.32 -9 4 C-9 3.01 -9 2.02 -9 1 C-5.6329035 -1.12002372 -3.78454048 -1.13536214 0 0 Z " fill="#BDBCAB" transform="translate(52,44)"/>
<path d="M0 0 C2 1 4 2 6 3 C6 3.66 6 4.32 6 5 C4.35 5 2.7 5 1 5 C1 9.29 1 13.58 1 18 C1.99 18.33 2.98 18.66 4 19 C2.02 19.99 2.02 19.99 0 21 C0 14.07 0 7.14 0 0 Z " fill="#9E9787" transform="translate(39,72)"/>
<path d="M0 0 C-0.75 1.9375 -0.75 1.9375 -2 4 C-4.125 4.75 -4.125 4.75 -6 5 C-6.144375 5.598125 -6.28875 6.19625 -6.4375 6.8125 C-6.8872439 8.56150404 -7.42892341 10.28677023 -8 12 C-9.32 11.67 -10.64 11.34 -12 11 C-10.82612037 6.01101158 -7.81687611 4.01341878 -3.875 1.13671875 C-2 0 -2 0 0 0 Z " fill="#E1E6D7" transform="translate(80,58)"/>
<path d="M0 0 C0 3 0 6 0 9 C-0.99 9.33 -1.98 9.66 -3 10 C-3 9.01 -3 8.02 -3 7 C-3.99 7.66 -4.98 8.32 -6 9 C-8.6875 9.125 -8.6875 9.125 -11 9 C-7.67149253 5.40521193 -4.01028669 2.77635232 0 0 Z " fill="#72A42F" transform="translate(48,55)"/>
<path d="M0 0 C-3 2 -3 2 -5 2 C-4.34 5.96 -3.68 9.92 -3 14 C-4.32 13.67 -5.64 13.34 -7 13 C-7 8.71 -7 4.42 -7 0 C-4.3333581 -1.33332095 -2.83319697 -0.67102033 0 0 Z " fill="#B2B2A6" transform="translate(47,77)"/>
<path d="M0 0 C1.32 0.66 2.64 1.32 4 2 C-0.29 4.97 -4.58 7.94 -9 11 C-9.33 10.34 -9.66 9.68 -10 9 C-9.34 9 -8.68 9 -8 9 C-8 7.02 -8 5.04 -8 3 C-7.67 3.99 -7.34 4.98 -7 6 C-6.34 6 -5.68 6 -5 6 C-5 5.34 -5 4.68 -5 4 C-4.360625 3.896875 -3.72125 3.79375 -3.0625 3.6875 C-2.381875 3.460625 -1.70125 3.23375 -1 3 C-0.67 2.01 -0.34 1.02 0 0 Z " fill="#678D34" transform="translate(66,53)"/>
<path d="M0 0 C2.31 0.66 4.62 1.32 7 2 C7 2.66 7 3.32 7 4 C8.1446875 4.185625 8.1446875 4.185625 9.3125 4.375 C12 5 12 5 15 7 C15 7.66 15 8.32 15 9 C9.31497465 7.35433477 4.23318364 4.70967216 -1 2 C-0.67 1.34 -0.34 0.68 0 0 Z " fill="#D5C9B5" transform="translate(41,24)"/>
<path d="M0 0 C0.66 0.33 1.32 0.66 2 1 C2.625 4.0625 2.625 4.0625 3 7 C1.68 7.33 0.36 7.66 -1 8 C-1 8.66 -1 9.32 -1 10 C-1.66 10 -2.32 10 -3 10 C-3.36629408 5.72656908 -2.40814077 3.51187196 0 0 Z " fill="#5B8C19" transform="translate(62,49)"/>
<path d="M0 0 C0.33 0.99 0.66 1.98 1 3 C-2.04563883 8.40355276 -6.28185991 11.05583237 -12 13 C-12 11 -12 11 -10.57421875 9.4921875 C-9.64029297 8.69167969 -9.64029297 8.69167969 -8.6875 7.875 C-8.07261719 7.33617187 -7.45773438 6.79734375 -6.82421875 6.2421875 C-5 5 -5 5 -2 5 C-1.34 3.35 -0.68 1.7 0 0 Z " fill="#BDC2B7" transform="translate(103,33)"/>
<path d="M0 0 C0.66 0.33 1.32 0.66 2 1 C-0.08013585 2.62923935 -2.16387974 4.2534547 -4.25 5.875 C-5.12978516 6.56529297 -5.12978516 6.56529297 -6.02734375 7.26953125 C-8.90929077 9.50384972 -11.62571167 11.5467174 -15 13 C-13.48922551 8.60868215 -10.08337724 6.68263208 -6.375 4.25 C-5.45847656 3.63318359 -5.45847656 3.63318359 -4.5234375 3.00390625 C-3.02104672 1.99448744 -1.51123091 0.9961353 0 0 Z " fill="#E3F5C9" transform="translate(54,49)"/>
<path d="M0 0 C4.3573226 1.47130373 7.71934134 3.83080615 11.3125 6.625 C11.86228516 7.04523438 12.41207031 7.46546875 12.97851562 7.8984375 C14.32292168 8.92720039 15.66201413 9.9629009 17 11 C12.89662229 11 10.59450562 8.91661317 7.375 6.625 C6.776875 6.2125 6.17875 5.8 5.5625 5.375 C1.13479965 2.2695993 1.13479965 2.2695993 0 0 Z " fill="#E3F1CE" transform="translate(68,91)"/>
<path d="M0 0 C0.99 0.33 1.98 0.66 3 1 C3.33 1.99 3.66 2.98 4 4 C3.01 4.495 3.01 4.495 2 5 C1.67 10.61 1.34 16.22 1 22 C0.67 22 0.34 22 0 22 C0 14.74 0 7.48 0 0 Z " fill="#9F9284" transform="translate(39,38)"/>
<path d="M0 0 C2.31 0.66 4.62 1.32 7 2 C4.64722731 4.72426311 2.37503669 5.8141763 -1 7 C-1.33 6.34 -1.66 5.68 -2 5 C-1.34 4.67 -0.68 4.34 0 4 C-0.33 3.34 -0.66 2.68 -1 2 C-0.67 1.34 -0.34 0.68 0 0 Z " fill="#5A2D0D" transform="translate(60,89)"/>
<path d="M0 0 C0.66 0.33 1.32 0.66 2 1 C0.8125 3.5 0.8125 3.5 -1 6 C-3.6875 6.3125 -3.6875 6.3125 -6 6 C-6 6.66 -6 7.32 -6 8 C-7.32 7.67 -8.64 7.34 -10 7 C-6.7 4.69 -3.4 2.38 0 0 Z " fill="#678D2E" transform="translate(62,45)"/>
<path d="M0 0 C3.45925163 1.2491742 6.14693203 2.67527795 9 5 C5.93109813 6.53445094 3.29905734 5.54984289 0 5 C-0.33 4.01 -0.66 3.02 -1 2 C-0.67 1.34 -0.34 0.68 0 0 Z " fill="#62381C" transform="translate(33,22)"/>
<path d="M0 0 C-4.95 2.31 -9.9 4.62 -15 7 C-14.34 5.68 -13.68 4.36 -13 3 C-9.875 2.25 -9.875 2.25 -7 2 C-7 1.34 -7 0.68 -7 0 C-3.98968256 -0.93423645 -3.13349732 -1.04449911 0 0 Z " fill="#5B3519" transform="translate(55,99)"/>
<path d="M0 0 C2.875 0.1875 2.875 0.1875 6 1 C7.375 3.5625 7.375 3.5625 8 6 C7.01 6.66 6.02 7.32 5 8 C4.67 7.01 4.34 6.02 4 5 C2.67151309 3.99357052 1.33849671 2.99307821 0 2 C0 1.34 0 0.68 0 0 Z " fill="#CCD2C1" transform="translate(77,78)"/>
<path d="M0 0 C4.39158329 1.4638611 4.87947433 3.97831338 7 8 C4 8 4 8 2.61328125 6.6875 C1.40885417 5.125 0.20442708 3.5625 -1 2 C-0.67 1.34 -0.34 0.68 0 0 Z " fill="#D8CCB8" transform="translate(26,100)"/>
<path d="M0 0 C0.99 0.33 1.98 0.66 3 1 C2.67 1.99 2.34 2.98 2 4 C1.96125079 5.66621616 1.9549714 7.33394172 2 9 C1.01 9 0.02 9 -1 9 C-1.33 6.69 -1.66 4.38 -2 2 C-1.34 2 -0.68 2 0 2 C0 1.34 0 0.68 0 0 Z " fill="#C4CBBD" transform="translate(44,46)"/>
<path d="M0 0 C1.32 0.33 2.64 0.66 4 1 C3.071875 2.1446875 3.071875 2.1446875 2.125 3.3125 C-0.05597052 5.99625809 -0.05597052 5.99625809 -2 9 C-2.6875 6.75 -2.6875 6.75 -3 4 C-1.5625 1.6875 -1.5625 1.6875 0 0 Z " fill="#ECE4D2" transform="translate(28,24)"/>
<path d="M0 0 C0.33 0 0.66 0 1 0 C1.3125 3.1875 1.3125 3.1875 1 7 C-1.5 9.9375 -1.5 9.9375 -4 12 C-4.99 11.67 -5.98 11.34 -7 11 C-6.01 10.67 -5.02 10.34 -4 10 C-3.67 9.01 -3.34 8.02 -3 7 C-2.34 7 -1.68 7 -1 7 C-0.67 4.69 -0.34 2.38 0 0 Z " fill="#CFD3C5" transform="translate(105,100)"/>
<path d="M0 0 C0.99 0.66 1.98 1.32 3 2 C3 2.99 3 3.98 3 5 C0.69 5.66 -1.62 6.32 -4 7 C-2.92598892 4.08482708 -2.22189824 2.22189824 0 0 Z " fill="#662808" transform="translate(59,37)"/>
<path d="M0 0 C0.66 0.33 1.32 0.66 2 1 C-1.3 3.64 -4.6 6.28 -8 9 C-8.66 8.34 -9.32 7.68 -10 7 C-6.7 4.69 -3.4 2.38 0 0 Z " fill="#DFE2AF" transform="translate(65,41)"/>
<path d="M0 0 C1.17539996 0.92652701 2.34010577 1.86663387 3.5 2.8125 C4.1496875 3.33457031 4.799375 3.85664062 5.46875 4.39453125 C7 6 7 6 7 9 C5.125 8.8125 5.125 8.8125 3 8 C1.8125 5.625 1.8125 5.625 1 3 C0.67 2.01 0.34 1.02 0 0 Z " fill="#E0E6D6" transform="translate(25,103)"/>
<path d="M0 0 C0.99 0.33 1.98 0.66 3 1 C1 4 1 4 -0.9453125 4.51171875 C-1.66460937 4.56972656 -2.38390625 4.62773438 -3.125 4.6875 C-5.043125 4.8421875 -5.043125 4.8421875 -7 5 C-2.25 1.125 -2.25 1.125 0 0 Z " fill="#A89F8B" transform="translate(60,95)"/>
<path d="M0 0 C0.33 0.66 0.66 1.32 1 2 C3.31 2 5.62 2 8 2 C6.68 3.32 5.36 4.64 4 6 C3.01 5.67 2.02 5.34 1 5 C0.67 3.35 0.34 1.7 0 0 Z " fill="#612703" transform="translate(32,25)"/>
<path d="M0 0 C0.99 0 1.98 0 3 0 C3 0.66 3 1.32 3 2 C3.99 2 4.98 2 6 2 C6 2.66 6 3.32 6 4 C4.35 4.33 2.7 4.66 1 5 C0.34 3.68 -0.32 2.36 -1 1 C-0.67 0.67 -0.34 0.34 0 0 Z " fill="#E0DDC5" transform="translate(37,20)"/>
<path d="M0 0 C-0.33 0.99 -0.66 1.98 -1 3 C-2.32 3 -3.64 3 -5 3 C-5.66 3.99 -6.32 4.98 -7 6 C-7 4.35 -7 2.7 -7 1 C-3.375 -1.125 -3.375 -1.125 0 0 Z " fill="#E7EADD" transform="translate(95,18)"/>
<path d="M0 0 C0.33 0 0.66 0 1 0 C1.25 2.3125 1.25 2.3125 1 5 C-1 6.8125 -1 6.8125 -3 8 C-3.66 7.67 -4.32 7.34 -5 7 C-4.19152271 5.83054208 -3.37810888 4.66449539 -2.5625 3.5 C-2.11003906 2.8503125 -1.65757813 2.200625 -1.19140625 1.53125 C-0.79824219 1.0259375 -0.40507813 0.520625 0 0 Z " fill="#ABB4A5" transform="translate(101,102)"/>
<path d="M0 0 C0 2 0 2 -2 4.125 C-2.66 4.74375 -3.32 5.3625 -4 6 C-3.34 6.33 -2.68 6.66 -2 7 C-5 7 -5 7 -7 6 C-5.81636731 2.44910192 -3.99368042 0 0 0 Z " fill="#D6DAB4" transform="translate(39,61)"/>
<path d="M0 0 C3 1.1875 3 1.1875 5 3.1875 C3.5199159 3.07387738 2.04089926 2.94627092 0.5625 2.8125 C-0.26121094 2.74289063 -1.08492188 2.67328125 -1.93359375 2.6015625 C-2.61550781 2.46492188 -3.29742187 2.32828125 -4 2.1875 C-4.33 1.5275 -4.66 0.8675 -5 0.1875 C-3 -0.8125 -3 -0.8125 0 0 Z " fill="#E0E3D5" transform="translate(77,102.8125)"/>
<path d="M0 0 C0.66 0 1.32 0 2 0 C1.67 2.64 1.34 5.28 1 8 C0.34 8 -0.32 8 -1 8 C-1.04241723 5.66705225 -1.04092937 3.33297433 -1 1 C-0.67 0.67 -0.34 0.34 0 0 Z " fill="#C1C6B8" transform="translate(103,99)"/>
<path d="M0 0 C1.32 1.32 2.64 2.64 4 4 C1.03 4 -1.94 4 -5 4 C-3.35 2.68 -1.7 1.36 0 0 Z " fill="#9F988A" transform="translate(67,91)"/>
<path d="M0 0 C5.75 1.875 5.75 1.875 8 3 C8 3.66 8 4.32 8 5 C8.66 5.33 9.32 5.66 10 6 C6.62972148 6 5.93297304 5.50175992 3.3125 3.5625 C2.68988281 3.11003906 2.06726562 2.65757813 1.42578125 2.19140625 C0.95527344 1.79824219 0.48476563 1.40507813 0 1 C0 0.67 0 0.34 0 0 Z " fill="#6F9839" transform="translate(48,75)"/>
<path d="M0 0 C1.98 0.66 3.96 1.32 6 2 C3.33333333 3.33333333 0.66666667 4.66666667 -2 6 C-1.49396008 3.83125748 -1.00016187 2.00032373 0 0 Z " fill="#AEAA9A" transform="translate(42,40)"/>
<path d="M0 0 C0.99 0.99 1.98 1.98 3 3 C2.1875 4.9375 2.1875 4.9375 1 7 C0.01 7.33 -0.98 7.66 -2 8 C-2 7.01 -2 6.02 -2 5 C-1.34 5 -0.68 5 0 5 C0 3.35 0 1.7 0 0 Z " fill="#536C38" transform="translate(98,27)"/>
<path d="M0 0 C0.33 0.99 0.66 1.98 1 3 C2.98 3 4.96 3 7 3 C6.67 4.32 6.34 5.64 6 7 C5.01 6.67 4.02 6.34 3 6 C3 5.34 3 4.68 3 4 C1.68 3.67 0.36 3.34 -1 3 C-0.67 2.01 -0.34 1.02 0 0 Z " fill="#57260D" transform="translate(29,29)"/>
<path d="M0 0 C2.31 0.66 4.62 1.32 7 2 C7 2.99 7 3.98 7 5 C1.25 3.25 1.25 3.25 -1 1 C-0.67 0.67 -0.34 0.34 0 0 Z " fill="#D0C3AD" transform="translate(41,24)"/>
<path d="M0 0 C-0.33 0.66 -0.66 1.32 -1 2 C-4.0625 2.625 -4.0625 2.625 -7 3 C-7 2.34 -7 1.68 -7 1 C-7.66 0.67 -8.32 0.34 -9 0 C-5.52176885 -1.15941038 -3.54104422 -0.70820884 0 0 Z " fill="#C7C4B5" transform="translate(42,109)"/>
<path d="M0 0 C2.97 0.99 5.94 1.98 9 3 C8.67 3.99 8.34 4.98 8 6 C6.66402348 5.19185349 5.331275 4.37836819 4 3.5625 C3.2575 3.11003906 2.515 2.65757813 1.75 2.19140625 C1.1725 1.79824219 0.595 1.40507813 0 1 C0 0.67 0 0.34 0 0 Z " fill="#5A7641" transform="translate(87,103)"/>
<path d="M0 0 C0.66 0.33 1.32 0.66 2 1 C2 1.66 2 2.32 2 3 C2.66 3 3.32 3 4 3 C4 3.66 4 4.32 4 5 C4.99 5.33 5.98 5.66 7 6 C6.67 6.66 6.34 7.32 6 8 C3.69 6.35 1.38 4.7 -1 3 C-0.67 2.01 -0.34 1.02 0 0 Z " fill="#7AA13F" transform="translate(36,64)"/>
<path d="M0 0 C2.0625 0.4375 2.0625 0.4375 4 1 C3.34 1 2.68 1 2 1 C2 2.65 2 4.3 2 6 C1.01 6 0.02 6 -1 6 C-1.042721 4.33388095 -1.04063832 2.66617115 -1 1 C-0.67 0.67 -0.34 0.34 0 0 Z " fill="#6B9B2F" transform="translate(54,61)"/>
<path d="M0 0 C-2.31 1.32 -4.62 2.64 -7 4 C-7 3.34 -7 2.68 -7 2 C-7.66 1.67 -8.32 1.34 -9 1 C-3.375 -1.125 -3.375 -1.125 0 0 Z " fill="#567B2F" transform="translate(84,45)"/>
<path d="M0 0 C2.97 0.99 5.94 1.98 9 3 C8.67 3.99 8.34 4.98 8 6 C5.0280615 4.87548273 2.66559313 3.77706209 0 2 C0 1.34 0 0.68 0 0 Z " fill="#5D3015" transform="translate(36,34)"/>
<path d="M0 0 C2.475 0.495 2.475 0.495 5 1 C5.33 1.99 5.66 2.98 6 4 C3.03 3.505 3.03 3.505 0 3 C0 2.01 0 1.02 0 0 Z " fill="#E4E7D9" transform="translate(97,88)"/>
<path d="M0 0 C3.93673644 1.31224548 6.22719294 2.91910327 9 6 C4.58763974 6 3.21615077 3.9302707 0 1 C0 0.67 0 0.34 0 0 Z " fill="#DBEBBC" transform="translate(36,68)"/>
<path d="M0 0 C0.99 0.33 1.98 0.66 3 1 C2.67 2.32 2.34 3.64 2 5 C-0.475 4.01 -0.475 4.01 -3 3 C-2.01 2.01 -1.02 1.02 0 0 Z " fill="#9AA193" transform="translate(60,63)"/>
<path d="M0 0 C1.98 0.66 3.96 1.32 6 2 C5.67 2.99 5.34 3.98 5 5 C3.68 4.67 2.36 4.34 1 4 C0.67 2.68 0.34 1.36 0 0 Z " fill="#5E3415" transform="translate(48,30)"/>
<path d="M0 0 C0 1.65 0 3.3 0 5 C-0.66 5 -1.32 5 -2 5 C-2 4.34 -2 3.68 -2 3 C-2.99 3 -3.98 3 -5 3 C-5 2.34 -5 1.68 -5 1 C-3 0 -3 0 0 0 Z " fill="#ECEBDA" transform="translate(37,18)"/>
</svg>
