 <svg version="1.0" xmlns="http://www.w3.org/2000/svg" width="110.000000pt" height="132.000000pt" viewBox="0 0 110.000000 132.000000" preserveAspectRatio="xMidYMid meet">  <g transform="translate(0.000000,132.000000) scale(0.050000,-0.050000)" fill="#260c08" stroke="none"> <path d="M611 2107 l-71 -93 0 -680 0 -680 62 -97 c77 -121 31 -128 422 67 387 193 364 166 227 262 l-109 75 -161 -80 c-88 -45 -168 -81 -177 -81 -25 0 -29 237 -6 315 18 61 14 69 -70 137 l-89 73 64 48 c89 65 93 75 83 214 -5 68 -2 158 8 200 l17 77 158 -82 c87 -45 164 -82 172 -82 31 0 201 146 186 159 -9 8 -158 88 -331 178 l-314 163 -71 -93z"></path> <path d="M1539 1945 c-192 -140 -459 -335 -594 -434 -135 -98 -245 -183 -244 -190 1 -6 268 -201 595 -433 l593 -422 66 92 c36 51 65 96 65 102 -1 5 -207 154 -460 330 -252 176 -456 329 -453 339 3 10 182 145 397 300 215 155 420 304 457 333 l66 51 -57 79 c-32 43 -63 85 -70 93 -7 9 -170 -99 -361 -240z"></path> </g> </svg> 